<svg width="20" height="20" viewBox="0 0 20 20" fill="none" xmlns="http://www.w3.org/2000/svg">
<path d="M18 0H6C4.9 0 4 0.9 4 2V14C4 15.1 4.9 16 6 16H18C19.1 16 20 15.1 20 14V2C20 0.9 19.1 0 18 0ZM15 5H13V10.37C13 11.64 12.1 12.81 10.84 12.97C10.4463 13.0238 10.0455 12.9832 9.67059 12.8515C9.29571 12.7198 8.95753 12.5008 8.68399 12.2126C8.41045 11.9244 8.20939 11.5752 8.09741 11.194C7.98543 10.8128 7.96576 10.4103 8.04 10.02C8.24 8.92 9.22 8.07 10.34 8C10.97 7.96 11.54 8.16 12 8.51V4C12 3.45 12.45 3 13 3H15C15.55 3 16 3.45 16 4C16 4.55 15.55 5 15 5ZM1 4C0.45 4 0 4.45 0 5V18C0 19.1 0.9 20 2 20H15C15.55 20 16 19.55 16 19C16 18.45 15.55 18 15 18H3C2.45 18 2 17.55 2 17V5C2 4.45 1.55 4 1 4Z" fill="#333333"/>
</svg>
